<svg xmlns="http://www.w3.org/2000/svg" width="12" height="12" viewBox="0 0 12 12">
  <metadata><?xpacket begin="﻿" id="W5M0MpCehiHzreSzNTczkc9d"?>
<x:xmpmeta xmlns:x="adobe:ns:meta/" x:xmptk="Adobe XMP Core 5.6-c138 79.159824, 2016/09/14-01:09:01        ">
   <rdf:RDF xmlns:rdf="http://www.w3.org/1999/02/22-rdf-syntax-ns#">
      <rdf:Description rdf:about=""/>
   </rdf:RDF>
</x:xmpmeta>
                                                                                                    
                                                                                                    
                                                                                                    
                                                                                                    
                                                                                                    
                                                                                                    
                                                                                                    
                                                                                                    
                                                                                                    
                                                                                                    
                                                                                                    
                                                                                                    
                                                                                                    
                                                                                                    
                                                                                                    
                                                                                                    
                                                                                                    
                                                                                                    
                                                                                                    
                                                                                                    
                           
<?xpacket end="w"?></metadata>
<defs>
    <style>
      .cls-1 {
        fill: #6c3302;
        fill-rule: evenodd;
      }
    </style>
  </defs>
  <path class="cls-1" d="M1438.43,103.164h1.05l-1.55-2.918a0.441,0.441,0,0,0-.63-0.177,0.522,0.522,0,0,0-.16.677Zm-3.57-2.418a0.512,0.512,0,0,0-.16-0.677,0.432,0.432,0,0,0-.62.177l-1.56,2.92h1.05Zm6.37,3.312h-10.46a0.8,0.8,0,0,0-.77.841v0.932a0.8,0.8,0,0,0,.77.841h0.24l0.75,4.4a1.08,1.08,0,0,0,.97.93h6.38a1.1,1.1,0,0,0,.98-0.93l0.75-4.4h0.39a0.8,0.8,0,0,0,.77-0.841V104.9A0.81,0.81,0,0,0,1441.23,104.058Zm-6.97,4.4v1.9a0.441,0.441,0,1,1-.88,0v-2.659a0.441,0.441,0,1,1,.88,0v0.763Zm1.4,0v1.9a0.441,0.441,0,1,1-.88,0v-2.659a0.462,0.462,0,0,1,.44-0.476,0.473,0.473,0,0,1,.44.476v0.763Zm1.4,1.1v0.795a0.437,0.437,0,1,1-.87,0v-2.659a0.466,0.466,0,0,1,.44-0.476,0.454,0.454,0,0,1,.43.476v1.864Zm1.4,0v0.795a0.437,0.437,0,1,1-.87,0v-2.659a0.459,0.459,0,0,1,.44-0.476,0.454,0.454,0,0,1,.43.476v1.864Z" transform="translate(-1430 -100)"/>
</svg>
