<svg xmlns="http://www.w3.org/2000/svg" width="14" height="14" viewBox="0 0 14 14">
  <metadata><?xpacket begin="﻿" id="W5M0MpCehiHzreSzNTczkc9d"?>
<x:xmpmeta xmlns:x="adobe:ns:meta/" x:xmptk="Adobe XMP Core 5.6-c138 79.159824, 2016/09/14-01:09:01        ">
   <rdf:RDF xmlns:rdf="http://www.w3.org/1999/02/22-rdf-syntax-ns#">
      <rdf:Description rdf:about=""/>
   </rdf:RDF>
</x:xmpmeta>
                                                                                                    
                                                                                                    
                                                                                                    
                                                                                                    
                                                                                                    
                                                                                                    
                                                                                                    
                                                                                                    
                                                                                                    
                                                                                                    
                                                                                                    
                                                                                                    
                                                                                                    
                                                                                                    
                                                                                                    
                                                                                                    
                                                                                                    
                                                                                                    
                                                                                                    
                                                                                                    
                           
<?xpacket end="w"?></metadata>
<defs>
    <style>
      .cls-1 {
        fill: #7c7c7c;
        fill-rule: evenodd;
      }
    </style>
  </defs>
  <path id="city-icon" class="cls-1" d="M631.022,840.13H629.2v-1.674a0.457,0.457,0,0,0-.914,0v1.674h-1.826a0.457,0.457,0,0,0-.456.457v10.956a0.456,0.456,0,0,0,.456.457h2.283v-9.587a1.37,1.37,0,0,1,1.843-1.285l0.9,0.331v-0.872A0.457,0.457,0,0,0,631.022,840.13Zm-3.2,10.044h-0.913v-0.913h0.913v0.913h0Zm0-1.826h-0.913v-0.913h0.913v0.913h0Zm0-1.826h-0.913v-0.913h0.913v0.913h0Zm0-1.826h-0.913v-0.913h0.913V844.7h0Zm0-1.827h-0.913v-0.913h0.913v0.913h0Zm2.441-.884a0.457,0.457,0,0,0-.615.428v9.13a0.457,0.457,0,0,0,.457.457H632.7v-9.119Zm1.516,8.189H630.87v-0.913h0.913v0.913Zm0-1.826H630.87v-0.913h0.913v0.913Zm0-1.826H630.87v-0.913h0.913v0.913Zm7.76-5.479h-0.456v-1.369a0.458,0.458,0,0,0-.457-0.457h-1.369v-0.761a0.457,0.457,0,0,0-.913,0v0.761h-1.37a0.457,0.457,0,0,0-.456.457v1.369h-0.457a0.457,0.457,0,0,0-.456.457v10.043a0.456,0.456,0,0,0,.456.457h5.478a0.457,0.457,0,0,0,.457-0.457V841.5A0.458,0.458,0,0,0,639.543,841.043Zm-3.2,9.131h-0.913v-0.913h0.913v0.913Zm0-1.826h-0.913v-0.913h0.913v0.913Zm0-1.826h-0.913v-0.913h0.913v0.913Zm0-1.826h-0.913v-0.913h0.913V844.7Zm1.826,5.478h-0.913v-0.913h0.913v0.913Zm0-1.826h-0.913v-0.913h0.913v0.913Zm0-1.826h-0.913v-0.913h0.913v0.913Zm0-1.826h-0.913v-0.913h0.913V844.7Z" transform="translate(-626 -838)"/>
</svg>
