<svg xmlns="http://www.w3.org/2000/svg" width="13" height="13" viewBox="0 0 13 13">
  <metadata><?xpacket begin="﻿" id="W5M0MpCehiHzreSzNTczkc9d"?>
<x:xmpmeta xmlns:x="adobe:ns:meta/" x:xmptk="Adobe XMP Core 5.6-c138 79.159824, 2016/09/14-01:09:01        ">
   <rdf:RDF xmlns:rdf="http://www.w3.org/1999/02/22-rdf-syntax-ns#">
      <rdf:Description rdf:about=""/>
   </rdf:RDF>
</x:xmpmeta>
                                                                                                    
                                                                                                    
                                                                                                    
                                                                                                    
                                                                                                    
                                                                                                    
                                                                                                    
                                                                                                    
                                                                                                    
                                                                                                    
                                                                                                    
                                                                                                    
                                                                                                    
                                                                                                    
                                                                                                    
                                                                                                    
                                                                                                    
                                                                                                    
                                                                                                    
                                                                                                    
                           
<?xpacket end="w"?></metadata>
<defs>
    <style>
      .cls-1 {
        fill: #383838;
        fill-rule: evenodd;
      }
    </style>
  </defs>
  <path id="Forma_1" data-name="Forma 1" class="cls-1" d="M1345.37,345.708a0.285,0.285,0,0,1,0-.416l4.45-4.452a0.57,0.57,0,0,0,0-.831l-0.83-.831a0.648,0.648,0,0,0-.41-0.178,0.546,0.546,0,0,0-.42.178l-4.45,4.452a0.292,0.292,0,0,1-.42,0l-4.45-4.452a0.573,0.573,0,0,0-.83,0l-0.83.831a0.57,0.57,0,0,0,0,.831l4.45,4.452a0.285,0.285,0,0,1,0,.416l-4.45,4.452a0.57,0.57,0,0,0,0,.831l0.83,0.831a0.573,0.573,0,0,0,.83,0l4.45-4.452a0.292,0.292,0,0,1,.42,0l4.45,4.452a0.573,0.573,0,0,0,.83,0l0.83-.831a0.57,0.57,0,0,0,0-.831Z" transform="translate(-1337 -339)"/>
</svg>
