<svg xmlns="http://www.w3.org/2000/svg" width="15" height="15" viewBox="0 0 15 15">
  <metadata><?xpacket begin="﻿" id="W5M0MpCehiHzreSzNTczkc9d"?>
<x:xmpmeta xmlns:x="adobe:ns:meta/" x:xmptk="Adobe XMP Core 5.6-c138 79.159824, 2016/09/14-01:09:01        ">
   <rdf:RDF xmlns:rdf="http://www.w3.org/1999/02/22-rdf-syntax-ns#">
      <rdf:Description rdf:about=""/>
   </rdf:RDF>
</x:xmpmeta>
                                                                                                    
                                                                                                    
                                                                                                    
                                                                                                    
                                                                                                    
                                                                                                    
                                                                                                    
                                                                                                    
                                                                                                    
                                                                                                    
                                                                                                    
                                                                                                    
                                                                                                    
                                                                                                    
                                                                                                    
                                                                                                    
                                                                                                    
                                                                                                    
                                                                                                    
                                                                                                    
                           
<?xpacket end="w"?></metadata>
<defs>
    <style>
      .cls-1 {
        fill: #c5c5c5;
        fill-rule: evenodd;
      }
    </style>
  </defs>
  <path id="color-icon" class="cls-1" d="M1406.5,1135a7.5,7.5,0,0,0,0,15,1.277,1.277,0,0,0,1.25-1.25,1.064,1.064,0,0,0-.33-0.83,1.466,1.466,0,0,1-.34-0.84,1.291,1.291,0,0,1,1.25-1.25h1.5a4.121,4.121,0,0,0,4.17-4.16C1414,1138,1410.67,1135,1406.5,1135Zm-4.58,7.5a1.25,1.25,0,1,1,1.25-1.25A1.277,1.277,0,0,1,1401.92,1142.5Zm2.5-3.33a1.25,1.25,0,1,1,1.25-1.25A1.284,1.284,0,0,1,1404.42,1139.17Zm4.16,0a1.25,1.25,0,0,1,0-2.5A1.25,1.25,0,0,1,1408.58,1139.17Zm2.5,3.33a1.25,1.25,0,1,1,1.25-1.25A1.284,1.284,0,0,1,1411.08,1142.5Z" transform="translate(-1399 -1135)"/>
</svg>
