<svg xmlns="http://www.w3.org/2000/svg" width="22" height="15" viewBox="0 0 22 15">
  <metadata><?xpacket begin="﻿" id="W5M0MpCehiHzreSzNTczkc9d"?>
<x:xmpmeta xmlns:x="adobe:ns:meta/" x:xmptk="Adobe XMP Core 5.6-c138 79.159824, 2016/09/14-01:09:01        ">
   <rdf:RDF xmlns:rdf="http://www.w3.org/1999/02/22-rdf-syntax-ns#">
      <rdf:Description rdf:about=""/>
   </rdf:RDF>
</x:xmpmeta>
                                                                                                    
                                                                                                    
                                                                                                    
                                                                                                    
                                                                                                    
                                                                                                    
                                                                                                    
                                                                                                    
                                                                                                    
                                                                                                    
                                                                                                    
                                                                                                    
                                                                                                    
                                                                                                    
                                                                                                    
                                                                                                    
                                                                                                    
                                                                                                    
                                                                                                    
                                                                                                    
                           
<?xpacket end="w"?></metadata>
<defs>
    <style>
      .cls-1 {
        fill: #383838;
        fill-rule: evenodd;
      }
    </style>
  </defs>
  <path id="Forma_1_copy_2" data-name="Forma 1 copy 2" class="cls-1" d="M397,355.5a2.3,2.3,0,0,1-.354,1.2l-6.946-7.066,6.871-5.465A2.319,2.319,0,0,1,397,345.5v10Zm-11-4.58,9.56-7.6a2.93,2.93,0,0,0-1.31-.315h-16.5a2.917,2.917,0,0,0-1.31.315Zm2.665-.46-2.213,1.762a0.742,0.742,0,0,1-.9,0l-2.213-1.762-7.035,7.156a2.925,2.925,0,0,0,1.451.384h16.5a2.924,2.924,0,0,0,1.45-.384Zm-13.237-6.288A2.325,2.325,0,0,0,375,345.5v10a2.3,2.3,0,0,0,.353,1.2l6.945-7.067Z" transform="translate(-375 -343)"/>
</svg>
