<svg xmlns="http://www.w3.org/2000/svg" width="17" height="11" viewBox="0 0 17 11">
  <metadata><?xpacket begin="﻿" id="W5M0MpCehiHzreSzNTczkc9d"?>
<x:xmpmeta xmlns:x="adobe:ns:meta/" x:xmptk="Adobe XMP Core 5.6-c138 79.159824, 2016/09/14-01:09:01        ">
   <rdf:RDF xmlns:rdf="http://www.w3.org/1999/02/22-rdf-syntax-ns#">
      <rdf:Description rdf:about=""/>
   </rdf:RDF>
</x:xmpmeta>
                                                                                                    
                                                                                                    
                                                                                                    
                                                                                                    
                                                                                                    
                                                                                                    
                                                                                                    
                                                                                                    
                                                                                                    
                                                                                                    
                                                                                                    
                                                                                                    
                                                                                                    
                                                                                                    
                                                                                                    
                                                                                                    
                                                                                                    
                                                                                                    
                                                                                                    
                                                                                                    
                           
<?xpacket end="w"?></metadata>
<defs>
    <style>
      .cls-1 {
        fill: #7c7c7c;
        fill-rule: evenodd;
      }
    </style>
  </defs>
  <path id="email-icon-grey" class="cls-1" d="M1510,2190.17a1.6,1.6,0,0,1-.27.88l-5.37-5.18,5.31-4.01a1.6,1.6,0,0,1,.33.97v7.34Zm-8.5-3.36,7.39-5.58a2.46,2.46,0,0,0-1.02-.23h-12.75a2.414,2.414,0,0,0-1.01.23Zm2.06-.34-1.71,1.29a0.56,0.56,0,0,1-.35.11,0.542,0.542,0,0,1-.35-0.11l-1.71-1.29-5.44,5.25a2.443,2.443,0,0,0,1.12.28h12.75a2.453,2.453,0,0,0,1.13-.28Zm-10.23-4.61a1.6,1.6,0,0,0-.33.97v7.34a1.6,1.6,0,0,0,.27.88l5.37-5.18Z" transform="translate(-1493 -2181)"/>
</svg>
