<svg xmlns="http://www.w3.org/2000/svg" width="13" height="9" viewBox="0 0 13 9">
  <metadata><?xpacket begin="﻿" id="W5M0MpCehiHzreSzNTczkc9d"?>
<x:xmpmeta xmlns:x="adobe:ns:meta/" x:xmptk="Adobe XMP Core 5.6-c138 79.159824, 2016/09/14-01:09:01        ">
   <rdf:RDF xmlns:rdf="http://www.w3.org/1999/02/22-rdf-syntax-ns#">
      <rdf:Description rdf:about=""/>
   </rdf:RDF>
</x:xmpmeta>
                                                                                                    
                                                                                                    
                                                                                                    
                                                                                                    
                                                                                                    
                                                                                                    
                                                                                                    
                                                                                                    
                                                                                                    
                                                                                                    
                                                                                                    
                                                                                                    
                                                                                                    
                                                                                                    
                                                                                                    
                                                                                                    
                                                                                                    
                                                                                                    
                                                                                                    
                                                                                                    
                           
<?xpacket end="w"?></metadata>
<defs>
    <style>
      .cls-1 {
        fill: #6c3302;
        fill-rule: evenodd;
      }
    </style>
  </defs>
  <path id="email-icon" class="cls-1" d="M1364,108.5a1.383,1.383,0,0,1-.21.721l-4.1-4.239,4.06-3.279a1.466,1.466,0,0,1,.25.8v6Zm-6.5-2.748,5.65-4.563a1.7,1.7,0,0,0-.78-0.189h-9.75a1.692,1.692,0,0,0-.77.189Zm1.57-.276-1.3,1.056a0.438,0.438,0,0,1-.54,0l-1.31-1.056-4.15,4.293a1.7,1.7,0,0,0,.85.231h9.75a1.71,1.71,0,0,0,.86-0.231Zm-7.82-3.773a1.466,1.466,0,0,0-.25.8v6a1.383,1.383,0,0,0,.21.721l4.1-4.24Z" transform="translate(-1351 -101)"/>
</svg>
