<svg xmlns="http://www.w3.org/2000/svg" width="66.72" height="54.69" viewBox="0 0 66.72 54.69">
  <metadata><?xpacket begin="﻿" id="W5M0MpCehiHzreSzNTczkc9d"?>
<x:xmpmeta xmlns:x="adobe:ns:meta/" x:xmptk="Adobe XMP Core 5.6-c138 79.159824, 2016/09/14-01:09:01        ">
   <rdf:RDF xmlns:rdf="http://www.w3.org/1999/02/22-rdf-syntax-ns#">
      <rdf:Description rdf:about=""/>
   </rdf:RDF>
</x:xmpmeta>
                                                                                                    
                                                                                                    
                                                                                                    
                                                                                                    
                                                                                                    
                                                                                                    
                                                                                                    
                                                                                                    
                                                                                                    
                                                                                                    
                                                                                                    
                                                                                                    
                                                                                                    
                                                                                                    
                                                                                                    
                                                                                                    
                                                                                                    
                                                                                                    
                                                                                                    
                                                                                                    
                           
<?xpacket end="w"?></metadata>
<defs>
    <style>
      .cls-1 {
        fill: #fff;
        fill-rule: evenodd;
      }
    </style>
  </defs>
  <path id="icon-4" class="cls-1" d="M1016.78,2161.18a5.5,5.5,0,0,0-1.49-4.79,7.172,7.172,0,0,0-4.77-2.22,6.242,6.242,0,0,0,1.42,5.19A6.154,6.154,0,0,0,1016.78,2161.18Zm32.3,2.09V2139.7h-5.47a4.972,4.972,0,0,1-.69,2.45,4.713,4.713,0,0,1-1.58,1.59,6.692,6.692,0,0,1-2.17.85,10.582,10.582,0,0,1-2.46.22v4.88h5.43v13.58h6.94Zm-21.26-12.44a16.971,16.971,0,0,1-.27-2.96,16.529,16.529,0,0,1,16.23-16.63v0.01a16.53,16.53,0,0,1,16.27,16.63,16.971,16.971,0,0,1-.27,2.96h4.11a22.164,22.164,0,0,0,.23-2.96,20.635,20.635,0,0,0-20.3-20.76v-0.01a20.636,20.636,0,0,0-20.34,20.76,22.164,22.164,0,0,0,.23,2.96h4.11Zm-6.4,9.86a5.883,5.883,0,0,0,1.08-9.4,7.367,7.367,0,0,0-2.6,4.62A5.47,5.47,0,0,0,1021.42,2160.69Zm1.62,2.94a5.47,5.47,0,0,0,2.12,4.54,6.358,6.358,0,0,0,2.31-4.69,6.168,6.168,0,0,0-2.45-4.77A7.346,7.346,0,0,0,1023.04,2163.63Zm6.66-.57a7.407,7.407,0,0,0-1.52,5.09,5.468,5.468,0,0,0,2.54,4.32,6.387,6.387,0,0,0,1.87-4.89A6.2,6.2,0,0,0,1029.7,2163.06Zm8,13.11a6.4,6.4,0,0,0,.4-5.23,6.1,6.1,0,0,0-4.05-3.48,7.48,7.48,0,0,0,0,5.33A5.331,5.331,0,0,0,1037.7,2176.17Zm-19.92-21.57a5.525,5.525,0,0,0,1.37-4.83,7.333,7.333,0,0,0-2.75-4.53,6.209,6.209,0,0,0-1.65,5.11A6.305,6.305,0,0,0,1017.78,2154.6Zm1.57,12.4a5.466,5.466,0,0,0-2.82-4.13,7.1,7.1,0,0,0-5.19-.7A5.752,5.752,0,0,0,1019.35,2167Zm4.51,5.11a5.429,5.429,0,0,0-3.66-3.39,7.077,7.077,0,0,0-5.21.5,6.123,6.123,0,0,0,3.77,3.77A6.2,6.2,0,0,0,1023.86,2172.11Zm5.02,3.63a5.346,5.346,0,0,0-4.49-2.1,7.2,7.2,0,0,0-4.83,2.07,6.047,6.047,0,0,0,4.73,2.43A6.18,6.18,0,0,0,1028.88,2175.74Zm2.15,1.48a7.213,7.213,0,0,0-4.55,2.65,6.04,6.04,0,0,0,4.98,1.84,6.228,6.228,0,0,0,4.27-2.94A5.291,5.291,0,0,0,1031.03,2177.22Zm-12.25-21.12-1.45-.05c-0.01.16-.29,16.12,23.45,23.2l0.41-1.42C1018.58,2171.1,1018.76,2156.71,1018.78,2156.1Zm52.04,5.09a6.154,6.154,0,0,0,4.84-1.82,6.222,6.222,0,0,0,1.41-5.19,7.156,7.156,0,0,0-4.76,2.22A5.5,5.5,0,0,0,1070.82,2161.19Zm-7.54-4.83a6.292,6.292,0,0,0,2.89,4.34,5.461,5.461,0,0,0,1.53-4.78,7.367,7.367,0,0,0-2.6-4.62A6.228,6.228,0,0,0,1063.28,2156.36Zm-3.15,7.13a6.358,6.358,0,0,0,2.31,4.69,5.465,5.465,0,0,0,2.13-4.54,7.328,7.328,0,0,0-1.99-4.92A6.168,6.168,0,0,0,1060.13,2163.49Zm-5.12,4.1a6.387,6.387,0,0,0,1.87,4.89,5.462,5.462,0,0,0,2.54-4.31,7.447,7.447,0,0,0-1.52-5.1A6.166,6.166,0,0,0,1055.01,2167.59Zm-5.51,3.37a6.453,6.453,0,0,0,.4,5.23,5.383,5.383,0,0,0,3.66-3.39,7.478,7.478,0,0,0-.01-5.32A6.085,6.085,0,0,0,1049.5,2170.96Zm23.35-20.6a6.174,6.174,0,0,0-1.65-5.11,7.333,7.333,0,0,0-2.75,4.53,5.525,5.525,0,0,0,1.37,4.83A6.305,6.305,0,0,0,1072.85,2150.36Zm-1.78,12.52a5.466,5.466,0,0,0-2.82,4.13,6.134,6.134,0,0,0,5.16-.29,6.21,6.21,0,0,0,2.86-4.54A7.126,7.126,0,0,0,1071.07,2162.88Zm-3.67,5.85a5.4,5.4,0,0,0-3.65,3.39,5.7,5.7,0,0,0,8.86-2.89A7.077,7.077,0,0,0,1067.4,2168.73Zm-4.19,4.92a5.346,5.346,0,0,0-4.49,2.1,6.209,6.209,0,0,0,4.59,2.41,6.074,6.074,0,0,0,4.73-2.44A7.166,7.166,0,0,0,1063.21,2173.65Zm-6.64,3.58a5.321,5.321,0,0,0-4.7,1.55,6.2,6.2,0,0,0,4.27,2.94,6.008,6.008,0,0,0,4.98-1.84A7.213,7.213,0,0,0,1056.57,2177.23Zm13.7-21.17-1.44.05c0.02,0.61.19,15-22.41,21.74l0.4,1.41C1070.57,2172.18,1070.28,2156.22,1070.27,2156.06Z" transform="translate(-1010.44 -2127.09)"/>
</svg>
