<svg xmlns="http://www.w3.org/2000/svg" width="79.813" height="80.5" viewBox="0 0 79.813 80.5">
  <metadata><?xpacket begin="﻿" id="W5M0MpCehiHzreSzNTczkc9d"?>
<x:xmpmeta xmlns:x="adobe:ns:meta/" x:xmptk="Adobe XMP Core 5.6-c138 79.159824, 2016/09/14-01:09:01        ">
   <rdf:RDF xmlns:rdf="http://www.w3.org/1999/02/22-rdf-syntax-ns#">
      <rdf:Description rdf:about=""/>
   </rdf:RDF>
</x:xmpmeta>
                                                                                                    
                                                                                                    
                                                                                                    
                                                                                                    
                                                                                                    
                                                                                                    
                                                                                                    
                                                                                                    
                                                                                                    
                                                                                                    
                                                                                                    
                                                                                                    
                                                                                                    
                                                                                                    
                                                                                                    
                                                                                                    
                                                                                                    
                                                                                                    
                                                                                                    
                                                                                                    
                           
<?xpacket end="w"?></metadata>
<defs>
    <style>
      .cls-1 {
        fill: #fff;
        fill-rule: evenodd;
      }
    </style>
  </defs>
  <path id="icon-3" class="cls-1" d="M439.773,1817.06v-10.59a10.369,10.369,0,0,1-11.785-2.17,10.559,10.559,0,0,1,.063-14.82,10.282,10.282,0,0,1,7.234-3.08,0.6,0.6,0,0,1,.133-0.01,10.5,10.5,0,0,1,4.355.96l0.01-10.5H427.3c0.3-.53.749-1.19,1.263-1.95a8.8,8.8,0,0,0,1.707-5.06,7.99,7.99,0,0,0-7.823-7.89h-0.113a7.958,7.958,0,0,0-7.936,7.99,8.774,8.774,0,0,0,1.7,4.95c0.474,0.7.965,1.43,1.267,1.96H405.714a3.343,3.343,0,0,0-3.332,3.36v33.49a3.343,3.343,0,0,0,3.332,3.36h34.059Zm31.942-37.76a10.62,10.62,0,0,1,.953,4.39,10.506,10.506,0,0,1-3.056,7.44,10.356,10.356,0,0,1-7.38,3.08,0.732,0.732,0,0,1-.147-0.01,10.279,10.279,0,0,1-7.23-3.09,10.483,10.483,0,0,1-3.058-7.29,10.6,10.6,0,0,1,.952-4.52H442.271v12.61c-0.441-.26-1.259-0.81-2.011-1.34a8.535,8.535,0,0,0-4.843-1.66h-0.1a8.017,8.017,0,0,0-6.8,11.95,7.923,7.923,0,0,0,6.905,4.05,9.025,9.025,0,0,0,4.843-1.66c0.881-.56,1.57-1.08,2.011-1.33v15.1H478.84a3.35,3.35,0,0,0,3.332-3.36V1779.3H471.715Zm7.135-42.73H442.282V1752s1.34-1.17,1.769-1.48a7.873,7.873,0,0,1,5.07-1.84,8,8,0,0,1,.1,15.99h-0.1a7.873,7.873,0,0,1-5.07-1.84c-0.429-.31-1.769-1.48-1.769-1.48v15.43h14.984c-0.116.24-.785,1.26-1.331,2.04a8.431,8.431,0,0,0-1.639,4.97,8,8,0,0,0,7.824,7.9h0.112a7.872,7.872,0,0,0,5.332-2.08,7.988,7.988,0,0,0,2.6-5.92,8.64,8.64,0,0,0-1.641-4.87c-0.609-.9-1.069-1.58-1.315-2.01l-0.015-.03h14.984v-36.85A3.343,3.343,0,0,0,478.85,1736.57Z" transform="translate(-402.375 -1736.56)"/>
</svg>
