<svg xmlns="http://www.w3.org/2000/svg" width="73" height="71.031" viewBox="0 0 73 71.031">
  <metadata><?xpacket begin="﻿" id="W5M0MpCehiHzreSzNTczkc9d"?>
<x:xmpmeta xmlns:x="adobe:ns:meta/" x:xmptk="Adobe XMP Core 5.6-c138 79.159824, 2016/09/14-01:09:01        ">
   <rdf:RDF xmlns:rdf="http://www.w3.org/1999/02/22-rdf-syntax-ns#">
      <rdf:Description rdf:about=""/>
   </rdf:RDF>
</x:xmpmeta>
                                                                                                    
                                                                                                    
                                                                                                    
                                                                                                    
                                                                                                    
                                                                                                    
                                                                                                    
                                                                                                    
                                                                                                    
                                                                                                    
                                                                                                    
                                                                                                    
                                                                                                    
                                                                                                    
                                                                                                    
                                                                                                    
                                                                                                    
                                                                                                    
                                                                                                    
                                                                                                    
                           
<?xpacket end="w"?></metadata>
<defs>
    <style>
      .cls-1 {
        fill: #fff;
        fill-rule: evenodd;
      }
    </style>
  </defs>
  <path id="Forma_1" data-name="Forma 1" class="cls-1" d="M459.187,340.807a6.871,6.871,0,1,0-6.843-6.871A6.866,6.866,0,0,0,459.187,340.807ZM477.437,295H413.562A4.571,4.571,0,0,0,409,299.58v41.227a4.585,4.585,0,0,0,4.562,4.58h34.219V363.71a2.28,2.28,0,0,0,3.65,1.832l7.756-5.84,7.756,5.84a2.281,2.281,0,0,0,3.651-1.832V345.387h6.843a4.585,4.585,0,0,0,4.563-4.58V299.58A4.585,4.585,0,0,0,477.437,295Zm-25.489,47.678a2.289,2.289,0,0,0-1.471-1.476l-2.455-.8,0.54-2.534a2.29,2.29,0,0,0-.538-2.015l-1.73-1.922,1.73-1.923a2.293,2.293,0,0,0,.538-2.015l-0.54-2.534,2.455-.8a2.284,2.284,0,0,0,1.471-1.477l0.793-2.468,2.523,0.545a2.271,2.271,0,0,0,2.01-.54l1.913-1.738,1.914,1.738a2.264,2.264,0,0,0,2.01.54l2.523-.545,0.793,2.468a2.286,2.286,0,0,0,1.471,1.477l2.455,0.8L469.813,330a2.293,2.293,0,0,0,.538,2.015l1.73,1.923-1.73,1.922a2.293,2.293,0,0,0-.538,2.015l0.54,2.534-2.455.8a2.289,2.289,0,0,0-1.471,1.477l-0.792,2.467-2.523-.546a2.272,2.272,0,0,0-2.011.54l-1.914,1.739-1.913-1.739a2.275,2.275,0,0,0-1.531-.592,2.239,2.239,0,0,0-.48.052l-2.523.546Zm-31.542-38.517h45.625a2.291,2.291,0,0,1,0,4.581H420.406A2.291,2.291,0,0,1,420.406,304.161Zm0,11.452h22.813a2.29,2.29,0,0,1,0,4.58H420.406A2.29,2.29,0,0,1,420.406,315.613Zm13.688,16.032H420.406a2.29,2.29,0,0,1,0-4.58h13.688A2.29,2.29,0,0,1,434.094,331.645Z" transform="translate(-409 -295)"/>
</svg>
