<svg xmlns="http://www.w3.org/2000/svg" width="69" height="69.03" viewBox="0 0 69 69.03">
  <metadata><?xpacket begin="﻿" id="W5M0MpCehiHzreSzNTczkc9d"?>
<x:xmpmeta xmlns:x="adobe:ns:meta/" x:xmptk="Adobe XMP Core 5.6-c138 79.159824, 2016/09/14-01:09:01        ">
   <rdf:RDF xmlns:rdf="http://www.w3.org/1999/02/22-rdf-syntax-ns#">
      <rdf:Description rdf:about=""/>
   </rdf:RDF>
</x:xmpmeta>
                                                                                                    
                                                                                                    
                                                                                                    
                                                                                                    
                                                                                                    
                                                                                                    
                                                                                                    
                                                                                                    
                                                                                                    
                                                                                                    
                                                                                                    
                                                                                                    
                                                                                                    
                                                                                                    
                                                                                                    
                                                                                                    
                                                                                                    
                                                                                                    
                                                                                                    
                                                                                                    
                           
<?xpacket end="w"?></metadata>
<defs>
    <style>
      .cls-1 {
        fill: #fff;
        fill-rule: evenodd;
      }
    </style>
  </defs>
  <path id="icon-3" class="cls-1" d="M449.591,2132.66l-9-9a2.249,2.249,0,0,0-3.841,1.59v3.01a29.846,29.846,0,0,0-22,20.7l0.73-.73a6.742,6.742,0,0,1,9.545,0l3.153,3.15a16.5,16.5,0,0,1,8.574-8.95v0.82a2.249,2.249,0,0,0,3.841,1.59l9-9A2.247,2.247,0,0,0,449.591,2132.66Zm28.237,19.48a2.253,2.253,0,0,0-2.079-1.39h-3.01a29.822,29.822,0,0,0-20.7-22l0.73,0.73a6.739,6.739,0,0,1,0,9.54l-3.152,3.15a16.523,16.523,0,0,1,8.947,8.58H457.75a2.25,2.25,0,0,0-1.591,3.84l9,9a2.246,2.246,0,0,0,3.181,0l9-9A2.245,2.245,0,0,0,477.828,2152.14Zm-6.306,14.63a6.742,6.742,0,0,1-9.545,0l-3.153-3.15a16.5,16.5,0,0,1-8.574,8.95v-0.82a2.249,2.249,0,0,0-3.841-1.59l-9,9a2.247,2.247,0,0,0,0,3.18l9,9A2.253,2.253,0,0,0,448,2192a2.349,2.349,0,0,0,.861-0.17,2.253,2.253,0,0,0,1.389-2.08v-3.01a29.846,29.846,0,0,0,22-20.7Zm-39.272,13.98a6.693,6.693,0,0,1,1.979-4.77l3.152-3.16a16.471,16.471,0,0,1-8.947-8.57h0.816a2.25,2.25,0,0,0,1.591-3.84l-9-9a2.248,2.248,0,0,0-3.182,0l-9,9a2.25,2.25,0,0,0,1.59,3.84h3.01a29.823,29.823,0,0,0,20.7,22l-0.729-.73A6.7,6.7,0,0,1,432.25,2180.75Z" transform="translate(-409 -2122.97)"/>
</svg>
