<svg xmlns="http://www.w3.org/2000/svg" width="70" height="49" viewBox="0 0 70 49">
  <metadata><?xpacket begin="﻿" id="W5M0MpCehiHzreSzNTczkc9d"?>
<x:xmpmeta xmlns:x="adobe:ns:meta/" x:xmptk="Adobe XMP Core 5.6-c138 79.159824, 2016/09/14-01:09:01        ">
   <rdf:RDF xmlns:rdf="http://www.w3.org/1999/02/22-rdf-syntax-ns#">
      <rdf:Description rdf:about=""/>
   </rdf:RDF>
</x:xmpmeta>
                                                                                                    
                                                                                                    
                                                                                                    
                                                                                                    
                                                                                                    
                                                                                                    
                                                                                                    
                                                                                                    
                                                                                                    
                                                                                                    
                                                                                                    
                                                                                                    
                                                                                                    
                                                                                                    
                                                                                                    
                                                                                                    
                                                                                                    
                                                                                                    
                                                                                                    
                                                                                                    
                           
<?xpacket end="w"?></metadata>
<defs>
    <style>
      .cls-1 {
        fill: #fff;
        fill-rule: evenodd;
      }
    </style>
  </defs>
  <path id="icon-1" class="cls-1" d="M424.151,1950h-4.3v1.9a1.539,1.539,0,0,1-3.077,0V1950h-4.3a1.642,1.642,0,0,0-1.65,1.64v8.06a10.985,10.985,0,0,1,3.159-.46H425.8v-7.6A1.642,1.642,0,0,0,424.151,1950Zm22.684,0h-4.3v1.9a1.539,1.539,0,0,1-3.077,0V1950h-4.3a1.642,1.642,0,0,0-1.65,1.64v7.6h14.969v-7.6A1.642,1.642,0,0,0,446.835,1950Zm22.683,0h-4.3v1.9a1.539,1.539,0,0,1-3.077,0V1950h-4.3a1.642,1.642,0,0,0-1.65,1.64v7.6h11.81a11,11,0,0,1,3.159.46v-8.06A1.642,1.642,0,0,0,469.518,1950Zm-1.509,12.3H413.991a7.959,7.959,0,0,0-7.991,7.93v0.97a7.944,7.944,0,0,0,4.959,7.33v18.18a2.308,2.308,0,0,0,4.615,0v-4.31h50.852v4.31a2.308,2.308,0,0,0,4.615,0v-18.18h0A7.944,7.944,0,0,0,476,1971.2v-0.97A7.965,7.965,0,0,0,468.009,1962.3Zm-54.743,10.94a2.53,2.53,0,1,1,2.546-2.53A2.536,2.536,0,0,1,413.266,1973.24Zm53.16,8.94v5.64H415.574v-8.69h50.852v3.05Zm1.162-8.94a2.53,2.53,0,1,1,2.546-2.53A2.536,2.536,0,0,1,467.588,1973.24Z" transform="translate(-406 -1950)"/>
</svg>
