<svg xmlns="http://www.w3.org/2000/svg" width="61" height="55" viewBox="0 0 61 55">
  <metadata><?xpacket begin="﻿" id="W5M0MpCehiHzreSzNTczkc9d"?>
<x:xmpmeta xmlns:x="adobe:ns:meta/" x:xmptk="Adobe XMP Core 5.6-c138 79.159824, 2016/09/14-01:09:01        ">
   <rdf:RDF xmlns:rdf="http://www.w3.org/1999/02/22-rdf-syntax-ns#">
      <rdf:Description rdf:about=""/>
   </rdf:RDF>
</x:xmpmeta>
                                                                                                    
                                                                                                    
                                                                                                    
                                                                                                    
                                                                                                    
                                                                                                    
                                                                                                    
                                                                                                    
                                                                                                    
                                                                                                    
                                                                                                    
                                                                                                    
                                                                                                    
                                                                                                    
                                                                                                    
                                                                                                    
                                                                                                    
                                                                                                    
                                                                                                    
                                                                                                    
                           
<?xpacket end="w"?></metadata>
<defs>
    <style>
      .cls-1 {
        fill: #fff;
        fill-rule: evenodd;
      }
    </style>
  </defs>
  <path id="icon-2" class="cls-1" d="M1071.85,1950.75h-38.01a0.147,0.147,0,0,0-.15.15v3.57a0.147,0.147,0,0,0,.15.15h38.01a0.154,0.154,0,0,0,.15-0.15v-3.57A0.142,0.142,0,0,0,1071.85,1950.75Zm-51.86,21.34a4.78,4.78,0,1,1-4.76,4.78A4.771,4.771,0,0,1,1019.99,1972.09Zm0,20.93a4.805,4.805,0,1,1-4.79,4.81A4.8,4.8,0,0,1,1019.99,1993.02Zm13.85-31.94h17.96a0.147,0.147,0,0,0,.15-0.15v-3.57a0.147,0.147,0,0,0-.15-0.15h-17.96a0.147,0.147,0,0,0-.15.15v3.57A0.154,0.154,0,0,0,1033.84,1961.08Zm38.01,10.63h-38.01a0.147,0.147,0,0,0-.15.15v3.57a0.147,0.147,0,0,0,.15.15h38.01a0.154,0.154,0,0,0,.15-0.15v-3.57A0.142,0.142,0,0,0,1071.85,1971.71Zm-38.01,10.33h17.96a0.147,0.147,0,0,0,.15-0.15v-3.57a0.147,0.147,0,0,0-.15-0.15h-17.96a0.147,0.147,0,0,0-.15.15v3.57A0.17,0.17,0,0,0,1033.84,1982.04Zm38.01,10.62h-38.01a0.147,0.147,0,0,0-.15.15v3.57a0.154,0.154,0,0,0,.15.15h38.01a0.154,0.154,0,0,0,.15-0.15v-3.57A0.142,0.142,0,0,0,1071.85,1992.66Zm-20.05,6.47h-17.96a0.147,0.147,0,0,0-.15.15v3.57a0.154,0.154,0,0,0,.15.15h17.96a0.147,0.147,0,0,0,.15-0.15v-3.57A0.142,0.142,0,0,0,1051.8,1999.13Zm-34.08-43.3-3.29-3.32-3.43,3.44,3.3,3.3,3.4,3.44,3.42-3.42,7.87-7.83-3.41-3.44Z" transform="translate(-1011 -1948)"/>
</svg>
