<svg xmlns="http://www.w3.org/2000/svg" width="75.87" height="75.09" viewBox="0 0 75.87 75.09">
  <metadata><?xpacket begin="﻿" id="W5M0MpCehiHzreSzNTczkc9d"?>
<x:xmpmeta xmlns:x="adobe:ns:meta/" x:xmptk="Adobe XMP Core 5.6-c138 79.159824, 2016/09/14-01:09:01        ">
   <rdf:RDF xmlns:rdf="http://www.w3.org/1999/02/22-rdf-syntax-ns#">
      <rdf:Description rdf:about=""/>
   </rdf:RDF>
</x:xmpmeta>
                                                                                                    
                                                                                                    
                                                                                                    
                                                                                                    
                                                                                                    
                                                                                                    
                                                                                                    
                                                                                                    
                                                                                                    
                                                                                                    
                                                                                                    
                                                                                                    
                                                                                                    
                                                                                                    
                                                                                                    
                                                                                                    
                                                                                                    
                                                                                                    
                                                                                                    
                                                                                                    
                           
<?xpacket end="w"?></metadata>
<defs>
    <style>
      .cls-1 {
        fill: #fff;
        fill-rule: evenodd;
      }
    </style>
  </defs>
  <path id="icon-2" class="cls-1" d="M1006.55,1507.57c0.07,0.07.18,0.16,0.32,0.28,3.73-9.94,12.59-18.95,12.59-18.95-4.16,5.01-6.32,15.74-7.23,21.72,4.15,1.39,9.88,1.74,14.91-3.36,8.68-8.8-1.33-20.13,13.92-30.27,0,0-19.6-5.42-32.11,7.25S1005.46,1506.48,1006.55,1507.57Zm62.43,9.91s13.59-15.18,7.89-32.08-18.25-13.08-19.7-12.59a2.716,2.716,0,0,0-.39.17c7.18,7.79,11.25,19.78,11.25,19.78-2.61-5.98-11.2-12.72-16.11-16.21-3.11,3.11-5.97,8.1-3.68,14.89C1052.2,1503.17,1066.77,1499.25,1068.98,1517.48Zm-6.94,11.55c-1.21-4.22-4.19-9.15-11.22-10.4-12.14-2.17-15.74,12.53-32.72,5.7,0,0,6.7,19.27,24.2,22.4s20.21-9.76,20.48-11.28c0.01-.09.03-0.23,0.04-0.42-10.26,2.56-22.69.37-22.69,0.37C1046.61,1535.99,1056.63,1531.67,1062.04,1529.03Z" transform="translate(-1002.38 -1472.13)"/>
</svg>
