<svg xmlns="http://www.w3.org/2000/svg" width="73" height="74" viewBox="0 0 73 74">
  <metadata><?xpacket begin="﻿" id="W5M0MpCehiHzreSzNTczkc9d"?>
<x:xmpmeta xmlns:x="adobe:ns:meta/" x:xmptk="Adobe XMP Core 5.6-c138 79.159824, 2016/09/14-01:09:01        ">
   <rdf:RDF xmlns:rdf="http://www.w3.org/1999/02/22-rdf-syntax-ns#">
      <rdf:Description rdf:about=""/>
   </rdf:RDF>
</x:xmpmeta>
                                                                                                    
                                                                                                    
                                                                                                    
                                                                                                    
                                                                                                    
                                                                                                    
                                                                                                    
                                                                                                    
                                                                                                    
                                                                                                    
                                                                                                    
                                                                                                    
                                                                                                    
                                                                                                    
                                                                                                    
                                                                                                    
                                                                                                    
                                                                                                    
                                                                                                    
                                                                                                    
                           
<?xpacket end="w"?></metadata>
<defs>
    <style>
      .cls-1 {
        fill: #fff;
        fill-rule: evenodd;
      }
    </style>
  </defs>
  <path id="icon-1" class="cls-1" d="M472.4,1502.98a12.125,12.125,0,0,0-12.167,12.05v2.2c-2.693-.96-7.9-2.2-16.729-2.2s-14.034,1.24-16.729,2.2v-2.2a12.125,12.125,0,0,0-12.167-12.05,7.518,7.518,0,0,0-2.921,14.48,2.258,2.258,0,0,1,1.4,2.08l1.521,6.02a10.593,10.593,0,0,0,9.438,10.47,3.71,3.71,0,1,0,3.314.07h32.292a3.706,3.706,0,1,0,3.314-.07,10.593,10.593,0,0,0,9.434-10.47l1.521-6.02a2.258,2.258,0,0,1,1.4-2.08A7.518,7.518,0,0,0,472.4,1502.98Zm-41.443,8.53a79.214,79.214,0,0,1,25.094,0,16.671,16.671,0,0,1,10.267-11.9v-8.03a22.815,22.815,0,0,0-45.627,0v8.03A16.668,16.668,0,0,1,430.953,1511.51Z" transform="translate(-407 -1469)"/>
</svg>
