<svg xmlns="http://www.w3.org/2000/svg" width="71.22" height="71.18" viewBox="0 0 71.22 71.18">
  <metadata><?xpacket begin="﻿" id="W5M0MpCehiHzreSzNTczkc9d"?>
<x:xmpmeta xmlns:x="adobe:ns:meta/" x:xmptk="Adobe XMP Core 5.6-c138 79.159824, 2016/09/14-01:09:01        ">
   <rdf:RDF xmlns:rdf="http://www.w3.org/1999/02/22-rdf-syntax-ns#">
      <rdf:Description rdf:about=""/>
   </rdf:RDF>
</x:xmpmeta>
                                                                                                    
                                                                                                    
                                                                                                    
                                                                                                    
                                                                                                    
                                                                                                    
                                                                                                    
                                                                                                    
                                                                                                    
                                                                                                    
                                                                                                    
                                                                                                    
                                                                                                    
                                                                                                    
                                                                                                    
                                                                                                    
                                                                                                    
                                                                                                    
                                                                                                    
                                                                                                    
                           
<?xpacket end="w"?></metadata>
<defs>
    <style>
      .cls-1 {
        fill: #fff;
        fill-rule: evenodd;
      }
    </style>
  </defs>
  <path id="icon-4" class="cls-1" d="M1024.68,1791.2h-2.1v2.78h2.1A1.42,1.42,0,0,0,1024.68,1791.2Zm-0.1,5.18h-2v3.99h2c0.99,0,1.59-.56,1.59-1.84S1025.96,1796.38,1024.58,1796.38Zm35.4-55.26h-33.05a2.537,2.537,0,0,0-2.54,2.54v30.52h38.14v-30.52A2.546,2.546,0,0,0,1059.98,1741.12Zm-10.72,21.99c0,1.12-2.69,1.85-3.02.7l-0.68-2.5h-4.21l-0.68,2.5c-0.33,1.14-3.02.42-3.02-.7,0-.14-0.15.42,3.76-12.41,0.43-1.38,3.64-1.39,4.07,0C1049.41,1763.52,1049.26,1762.97,1049.26,1763.11Zm-5.81-9.55-1.46,5.35h2.91Zm2.55,25.7v33.05h30.51a2.544,2.544,0,0,0,2.54-2.54v-30.51H1046Zm17.34,21.17c1.6,0,1.7-1.22,1.76-2,0.06-.74.74-0.94,1.53-0.94,1.08,0,1.58.28,1.58,1.48,0,2.66-2.15,4.18-5.01,4.18-2.62,0-4.8-1.28-4.8-4.72v-5.29c0-3.44,2.18-4.71,4.8-4.71,2.86,0,5.01,1.43,5.01,3.97,0,1.2-.5,1.48-1.56,1.48-0.83,0-1.51-.22-1.55-0.94a1.612,1.612,0,0,0-1.78-1.8c-1.14,0-1.8.64-1.8,2v5.29A1.7,1.7,0,0,0,1063.34,1800.43Zm-55.48-21.17v30.51a2.544,2.544,0,0,0,2.54,2.54h30.51v-33.05h-33.05Zm17.41,23.83h-4.43a1.167,1.167,0,0,1-1.36-.94v-12.71a1.177,1.177,0,0,1,1.36-.95h4.1c1.99,0,3.99.71,3.99,3.55a3.114,3.114,0,0,1-1.7,3.14,2.909,2.909,0,0,1,2.06,3.19C1029.29,1801.28,1028.28,1803.09,1025.27,1803.09Z" transform="translate(-1007.84 -1741.13)"/>
</svg>
