<svg xmlns="http://www.w3.org/2000/svg" width="20" height="21" viewBox="0 0 20 21">
  <metadata><?xpacket begin="﻿" id="W5M0MpCehiHzreSzNTczkc9d"?>
<x:xmpmeta xmlns:x="adobe:ns:meta/" x:xmptk="Adobe XMP Core 5.6-c138 79.159824, 2016/09/14-01:09:01        ">
   <rdf:RDF xmlns:rdf="http://www.w3.org/1999/02/22-rdf-syntax-ns#">
      <rdf:Description rdf:about=""/>
   </rdf:RDF>
</x:xmpmeta>
                                                                                                    
                                                                                                    
                                                                                                    
                                                                                                    
                                                                                                    
                                                                                                    
                                                                                                    
                                                                                                    
                                                                                                    
                                                                                                    
                                                                                                    
                                                                                                    
                                                                                                    
                                                                                                    
                                                                                                    
                                                                                                    
                                                                                                    
                                                                                                    
                                                                                                    
                                                                                                    
                           
<?xpacket end="w"?></metadata>
<defs>
    <style>
      .cls-1 {
        fill: #383838;
        fill-rule: evenodd;
      }
    </style>
  </defs>
  <path id="Forma_1" data-name="Forma 1" class="cls-1" d="M1005.73,1227.78a1.71,1.71,0,0,0,1.57-1.03,7.3,7.3,0,0,1,11.1-2.9l-0.95.15a0.743,0.743,0,0,0-.63.62,0.726,0.726,0,0,0,.44.77l5.26,2.32a0.775,0.775,0,0,0,.71-0.05,0.718,0.718,0,0,0,.34-0.61l0.03-5.69a0.752,0.752,0,0,0-1.37-.41l-0.73,1.07a10.8,10.8,0,0,0-17.36,3.4,1.66,1.66,0,0,0,.15,1.6A1.746,1.746,0,0,0,1005.73,1227.78Zm17.98,4.2a1.746,1.746,0,0,0-1.44-.76,1.71,1.71,0,0,0-1.57,1.03,7.3,7.3,0,0,1-11.1,2.9l0.95-.15a0.743,0.743,0,0,0,.63-0.62,0.726,0.726,0,0,0-.44-0.77l-5.26-2.32a0.775,0.775,0,0,0-.71.05,0.718,0.718,0,0,0-.34.61l-0.03,5.69a0.752,0.752,0,0,0,1.37.41l0.73-1.07a10.8,10.8,0,0,0,17.36-3.4A1.66,1.66,0,0,0,1023.71,1231.98Z" transform="translate(-1004 -1219)"/>
</svg>
