<svg xmlns="http://www.w3.org/2000/svg" width="30" height="28" viewBox="0 0 30 28">
  <metadata><?xpacket begin="﻿" id="W5M0MpCehiHzreSzNTczkc9d"?>
<x:xmpmeta xmlns:x="adobe:ns:meta/" x:xmptk="Adobe XMP Core 5.6-c138 79.159824, 2016/09/14-01:09:01        ">
   <rdf:RDF xmlns:rdf="http://www.w3.org/1999/02/22-rdf-syntax-ns#">
      <rdf:Description rdf:about=""/>
   </rdf:RDF>
</x:xmpmeta>
                                                                                                    
                                                                                                    
                                                                                                    
                                                                                                    
                                                                                                    
                                                                                                    
                                                                                                    
                                                                                                    
                                                                                                    
                                                                                                    
                                                                                                    
                                                                                                    
                                                                                                    
                                                                                                    
                                                                                                    
                                                                                                    
                                                                                                    
                                                                                                    
                                                                                                    
                                                                                                    
                           
<?xpacket end="w"?></metadata>
<defs>
    <style>
      .cls-1 {
        fill: #6c3302;
        fill-rule: evenodd;
      }
    </style>
  </defs>
  <path id="Forma_1" data-name="Forma 1" class="cls-1" d="M1517.03,26h-28.06a0.96,0.96,0,0,0-.97.94v4.18a0.96,0.96,0,0,0,.97.94h28.06a0.96,0.96,0,0,0,.97-0.94v-4.18A0.96,0.96,0,0,0,1517.03,26Zm0,10.971h-28.06a0.96,0.96,0,0,0-.97.94v4.18a0.96,0.96,0,0,0,.97.94h28.06a0.96,0.96,0,0,0,.97-0.94V37.91A0.96,0.96,0,0,0,1517.03,36.97Zm0,10.971h-28.06a0.96,0.96,0,0,0-.97.94v4.18a0.96,0.96,0,0,0,.97.94h28.06a0.96,0.96,0,0,0,.97-0.94v-4.18A0.96,0.96,0,0,0,1517.03,47.941Z" transform="translate(-1488 -26)"/>
</svg>
