<svg xmlns="http://www.w3.org/2000/svg" width="20" height="15" viewBox="0 0 20 15">
  <metadata><?xpacket begin="﻿" id="W5M0MpCehiHzreSzNTczkc9d"?>
<x:xmpmeta xmlns:x="adobe:ns:meta/" x:xmptk="Adobe XMP Core 5.6-c138 79.159824, 2016/09/14-01:09:01        ">
   <rdf:RDF xmlns:rdf="http://www.w3.org/1999/02/22-rdf-syntax-ns#">
      <rdf:Description rdf:about=""/>
   </rdf:RDF>
</x:xmpmeta>
                                                                                                    
                                                                                                    
                                                                                                    
                                                                                                    
                                                                                                    
                                                                                                    
                                                                                                    
                                                                                                    
                                                                                                    
                                                                                                    
                                                                                                    
                                                                                                    
                                                                                                    
                                                                                                    
                                                                                                    
                                                                                                    
                                                                                                    
                                                                                                    
                                                                                                    
                                                                                                    
                           
<?xpacket end="w"?></metadata>
<defs>
    <style>
      .cls-1 {
        fill: #7c7c7c;
        fill-rule: evenodd;
      }
    </style>
  </defs>
  <path id="name-icon-grey" class="cls-1" d="M1510.7,2127.07h-3.86v0.2a1.552,1.552,0,0,1-1.58,1.52h-4.52a1.555,1.555,0,0,1-1.59-1.52v-0.2h-3.85a2.257,2.257,0,0,0-2.3,2.21v8.51a2.257,2.257,0,0,0,2.3,2.21h15.4a2.257,2.257,0,0,0,2.3-2.21v-8.51A2.257,2.257,0,0,0,1510.7,2127.07Zm-13.48,4.78c-0.02-.08-0.04-0.15-0.06-0.22h0a1.42,1.42,0,0,1,0-.68,1.484,1.484,0,0,1,.41-0.7,2.24,2.24,0,0,1,.38-0.31,1.659,1.659,0,0,1,.38-0.18h0a1.213,1.213,0,0,1,.33-0.07,1.4,1.4,0,0,1,.85.18,1.094,1.094,0,0,1,.42.37s0.68,0.04.45,1.39a0.83,0.83,0,0,1-.06.21c0.14-.01.29,0.06,0.14,0.58a0.56,0.56,0,0,1-.29.49,1.654,1.654,0,0,1-1.03,1.23,1.2,1.2,0,0,1-.75,0,1.613,1.613,0,0,1-1.03-1.23,0.579,0.579,0,0,1-.3-0.49C1496.93,2131.91,1497.09,2131.83,1497.22,2131.85Zm1.57,5.26h-3.35c0.02-1.33-.03-2.05.87-2.36a8.642,8.642,0,0,0,1.3-.61l0.63,1.92,0.09,0.26,0.28-.78c-0.65-.87.05-0.91,0.17-0.91h0c0.12,0,.81.05,0.17,0.91l0.28,0.78,0.09-.26,0.63-1.92a8.642,8.642,0,0,0,1.3.61c0.9,0.31.85,1.03,0.86,2.36h-3.32Zm11.96-1.42h-6.71v-0.83h6.71v0.83Zm0-1.74h-6.71v-0.83h6.71v0.83Zm0-1.74h-6.71v-0.83h6.71v0.83Zm-10.01-4.15h4.51a0.8,0.8,0,0,0,.82-0.79v-0.54a0.8,0.8,0,0,0-.82-0.79H1505v-0.33a0.617,0.617,0,0,0-.63-0.61h-2.75a0.623,0.623,0,0,0-.63.61v0.33h-0.25a0.8,0.8,0,0,0-.82.79v0.54A0.8,0.8,0,0,0,1500.74,2128.06Z" transform="translate(-1493 -2125)"/>
</svg>
