<svg xmlns="http://www.w3.org/2000/svg" width="11" height="11" viewBox="0 0 11 11">
  <metadata><?xpacket begin="﻿" id="W5M0MpCehiHzreSzNTczkc9d"?>
<x:xmpmeta xmlns:x="adobe:ns:meta/" x:xmptk="Adobe XMP Core 5.6-c138 79.159824, 2016/09/14-01:09:01        ">
   <rdf:RDF xmlns:rdf="http://www.w3.org/1999/02/22-rdf-syntax-ns#">
      <rdf:Description rdf:about=""/>
   </rdf:RDF>
</x:xmpmeta>
                                                                                                    
                                                                                                    
                                                                                                    
                                                                                                    
                                                                                                    
                                                                                                    
                                                                                                    
                                                                                                    
                                                                                                    
                                                                                                    
                                                                                                    
                                                                                                    
                                                                                                    
                                                                                                    
                                                                                                    
                                                                                                    
                                                                                                    
                                                                                                    
                                                                                                    
                                                                                                    
                           
<?xpacket end="w"?></metadata>
<defs>
    <style>
      .cls-1 {
        fill: #6c3302;
        fill-rule: evenodd;
      }
    </style>
  </defs>
  <path id="phone-icon" class="cls-1" d="M1194.99,108.681a0.517,0.517,0,0,1-.16.466l-1.55,1.538a0.876,0.876,0,0,1-.27.2,1.055,1.055,0,0,1-.33.105l-0.07.006q-0.06.006-.15,0.006a5.143,5.143,0,0,1-1.93-.449,10.275,10.275,0,0,1-1.63-.891,12.177,12.177,0,0,1-1.93-1.632,13.281,13.281,0,0,1-1.35-1.538,10.91,10.91,0,0,1-.86-1.357,7.22,7.22,0,0,1-.49-1.131,5.976,5.976,0,0,1-.22-0.873,2.7,2.7,0,0,1-.05-0.577c0.01-.14.01-0.218,0.01-0.233a1.107,1.107,0,0,1,.11-0.332,0.773,0.773,0,0,1,.2-0.274l1.54-1.55a0.53,0.53,0,0,1,.38-0.163,0.449,0.449,0,0,1,.27.087,0.846,0.846,0,0,1,.19.216l1.25,2.365a0.574,0.574,0,0,1,.06.408,0.727,0.727,0,0,1-.2.373l-0.57.571a0.141,0.141,0,0,0-.04.076,0.373,0.373,0,0,0-.02.087,2.019,2.019,0,0,0,.21.559,5.176,5.176,0,0,0,.43.682,11.325,11.325,0,0,0,1.76,1.76,5.532,5.532,0,0,0,.68.437,1.761,1.761,0,0,0,.42.169l0.15,0.029a0.249,0.249,0,0,0,.07-0.018,0.212,0.212,0,0,0,.08-0.04l0.66-.677a0.71,0.71,0,0,1,.49-0.186,0.574,0.574,0,0,1,.31.07h0.02l2.24,1.328A0.562,0.562,0,0,1,1194.99,108.681Z" transform="translate(-1184 -100)"/>
</svg>
