<svg xmlns="http://www.w3.org/2000/svg" width="15" height="15" viewBox="0 0 15 15">
  <metadata><?xpacket begin="﻿" id="W5M0MpCehiHzreSzNTczkc9d"?>
<x:xmpmeta xmlns:x="adobe:ns:meta/" x:xmptk="Adobe XMP Core 5.6-c138 79.159824, 2016/09/14-01:09:01        ">
   <rdf:RDF xmlns:rdf="http://www.w3.org/1999/02/22-rdf-syntax-ns#">
      <rdf:Description rdf:about=""/>
   </rdf:RDF>
</x:xmpmeta>
                                                                                                    
                                                                                                    
                                                                                                    
                                                                                                    
                                                                                                    
                                                                                                    
                                                                                                    
                                                                                                    
                                                                                                    
                                                                                                    
                                                                                                    
                                                                                                    
                                                                                                    
                                                                                                    
                                                                                                    
                                                                                                    
                                                                                                    
                                                                                                    
                                                                                                    
                                                                                                    
                           
<?xpacket end="w"?></metadata>
<defs>
    <style>
      .cls-1 {
        fill: #7c7c7c;
        fill-rule: evenodd;
      }
    </style>
  </defs>
  <path id="phone-icon-grey" class="cls-1" d="M1509.99,2083.84a0.722,0.722,0,0,1-.22.63l-2.11,2.1a1.143,1.143,0,0,1-.37.27,1.722,1.722,0,0,1-.46.14,0.553,0.553,0,0,1-.09.01,1.279,1.279,0,0,1-.21.01,7.04,7.04,0,0,1-.98-0.1,7.467,7.467,0,0,1-1.65-.51,13.708,13.708,0,0,1-2.21-1.22,16.362,16.362,0,0,1-2.64-2.22,17.472,17.472,0,0,1-1.84-2.1,15.041,15.041,0,0,1-1.18-1.85,10.926,10.926,0,0,1-.66-1.54,7.649,7.649,0,0,1-.3-1.19,3.642,3.642,0,0,1-.07-0.79c0.01-.19.02-0.3,0.02-0.32a1.559,1.559,0,0,1,.14-0.45,1.362,1.362,0,0,1,.27-0.37l2.11-2.12a0.7,0.7,0,0,1,.51-0.22,0.607,0.607,0,0,1,.37.12,1.5,1.5,0,0,1,.27.29l1.7,3.23a0.745,0.745,0,0,1,.07.55,0.905,0.905,0,0,1-.27.51l-0.77.78a0.358,0.358,0,0,0-.06.11,0.516,0.516,0,0,0-.02.11,3.039,3.039,0,0,0,.28.77,8.777,8.777,0,0,0,.59.93,11.3,11.3,0,0,0,1.13,1.26,9.941,9.941,0,0,0,1.27,1.14,7.4,7.4,0,0,0,.93.59,2.14,2.14,0,0,0,.57.23l0.2,0.04a0.838,0.838,0,0,0,.1-0.02,0.289,0.289,0,0,0,.1-0.06l0.91-.92a0.962,0.962,0,0,1,.67-0.25,0.819,0.819,0,0,1,.42.09h0.02l3.07,1.81A0.807,0.807,0,0,1,1509.99,2083.84Z" transform="translate(-1495 -2072)"/>
</svg>
