<svg xmlns="http://www.w3.org/2000/svg" width="20" height="20" viewBox="0 0 20 20">
  <metadata><?xpacket begin="﻿" id="W5M0MpCehiHzreSzNTczkc9d"?>
<x:xmpmeta xmlns:x="adobe:ns:meta/" x:xmptk="Adobe XMP Core 5.6-c138 79.159824, 2016/09/14-01:09:01        ">
   <rdf:RDF xmlns:rdf="http://www.w3.org/1999/02/22-rdf-syntax-ns#">
      <rdf:Description rdf:about=""/>
   </rdf:RDF>
</x:xmpmeta>
                                                                                                    
                                                                                                    
                                                                                                    
                                                                                                    
                                                                                                    
                                                                                                    
                                                                                                    
                                                                                                    
                                                                                                    
                                                                                                    
                                                                                                    
                                                                                                    
                                                                                                    
                                                                                                    
                                                                                                    
                                                                                                    
                                                                                                    
                                                                                                    
                                                                                                    
                                                                                                    
                           
<?xpacket end="w"?></metadata>
<defs>
    <style>
      .cls-1 {
        fill: #383838;
        fill-rule: evenodd;
      }
    </style>
  </defs>
  <path id="Forma_1_copy" data-name="Forma 1 copy" class="cls-1" d="M395.99,318.783a0.967,0.967,0,0,1-.3.847l-2.816,2.8a1.555,1.555,0,0,1-.5.36,2.05,2.05,0,0,1-.6.191c-0.013,0-.056,0-0.127.011s-0.162.01-.275,0.01a9.337,9.337,0,0,1-3.5-.815,18.5,18.5,0,0,1-2.953-1.621A22.062,22.062,0,0,1,381.4,317.6a23.208,23.208,0,0,1-2.456-2.8,19.923,19.923,0,0,1-1.567-2.468,13.291,13.291,0,0,1-.889-2.055,10.765,10.765,0,0,1-.4-1.589,5.236,5.236,0,0,1-.085-1.049q0.021-.381.021-0.423a2.05,2.05,0,0,1,.191-0.6,1.588,1.588,0,0,1,.359-0.5l2.817-2.818a0.929,0.929,0,0,1,.677-0.3,0.793,0.793,0,0,1,.487.158,1.485,1.485,0,0,1,.36.392l2.265,4.3a1.03,1.03,0,0,1,.106.742,1.31,1.31,0,0,1-.36.677l-1.037,1.039a0.351,0.351,0,0,0-.074.138,0.524,0.524,0,0,0-.032.158,3.788,3.788,0,0,0,.381,1.017,9.448,9.448,0,0,0,.784,1.24,13.756,13.756,0,0,0,1.5,1.684,13.9,13.9,0,0,0,1.694,1.515,9.841,9.841,0,0,0,1.238.8,3.362,3.362,0,0,0,.762.307l0.265,0.052a0.508,0.508,0,0,0,.138-0.031,0.353,0.353,0,0,0,.137-0.074l1.207-1.229a1.292,1.292,0,0,1,.889-0.339,1.1,1.1,0,0,1,.572.127h0.021l4.086,2.415A1.068,1.068,0,0,1,395.99,318.783Z" transform="translate(-376 -303)"/>
</svg>
