<svg xmlns="http://www.w3.org/2000/svg" width="11.719" height="12" viewBox="0 0 11.719 12">
  <metadata><?xpacket begin="﻿" id="W5M0MpCehiHzreSzNTczkc9d"?>
<x:xmpmeta xmlns:x="adobe:ns:meta/" x:xmptk="Adobe XMP Core 5.6-c138 79.159824, 2016/09/14-01:09:01        ">
   <rdf:RDF xmlns:rdf="http://www.w3.org/1999/02/22-rdf-syntax-ns#">
      <rdf:Description rdf:about=""/>
   </rdf:RDF>
</x:xmpmeta>
                                                                                                    
                                                                                                    
                                                                                                    
                                                                                                    
                                                                                                    
                                                                                                    
                                                                                                    
                                                                                                    
                                                                                                    
                                                                                                    
                                                                                                    
                                                                                                    
                                                                                                    
                                                                                                    
                                                                                                    
                                                                                                    
                                                                                                    
                                                                                                    
                                                                                                    
                                                                                                    
                           
<?xpacket end="w"?></metadata>
<defs>
    <style>
      .cls-1 {
        fill: #c5c5c5;
        fill-rule: evenodd;
      }
    </style>
  </defs>
  <path id="Forma_1" data-name="Forma 1" class="cls-1" d="M974.712,450.5h-4.151a0.234,0.234,0,0,1-.244-0.25V446a0.467,0.467,0,0,0-.488-0.5h-0.977a0.467,0.467,0,0,0-.488.5v4.25a0.234,0.234,0,0,1-.244.25h-4.151a0.467,0.467,0,0,0-.488.5v1a0.467,0.467,0,0,0,.488.5h4.151a0.234,0.234,0,0,1,.244.25V457a0.467,0.467,0,0,0,.488.5h0.977a0.467,0.467,0,0,0,.488-0.5v-4.25a0.234,0.234,0,0,1,.244-0.25h4.151a0.467,0.467,0,0,0,.488-0.5v-1A0.467,0.467,0,0,0,974.712,450.5Z" transform="translate(-963.469 -445.5)"/>
</svg>
