<svg xmlns="http://www.w3.org/2000/svg" width="15" height="15" viewBox="0 0 15 15">
  <metadata><?xpacket begin="﻿" id="W5M0MpCehiHzreSzNTczkc9d"?>
<x:xmpmeta xmlns:x="adobe:ns:meta/" x:xmptk="Adobe XMP Core 5.6-c138 79.159824, 2016/09/14-01:09:01        ">
   <rdf:RDF xmlns:rdf="http://www.w3.org/1999/02/22-rdf-syntax-ns#">
      <rdf:Description rdf:about=""/>
   </rdf:RDF>
</x:xmpmeta>
                                                                                                    
                                                                                                    
                                                                                                    
                                                                                                    
                                                                                                    
                                                                                                    
                                                                                                    
                                                                                                    
                                                                                                    
                                                                                                    
                                                                                                    
                                                                                                    
                                                                                                    
                                                                                                    
                                                                                                    
                                                                                                    
                                                                                                    
                                                                                                    
                                                                                                    
                                                                                                    
                           
<?xpacket end="w"?></metadata>
<defs>
    <style>
      .cls-1 {
        fill: #c5c5c5;
        fill-rule: evenodd;
      }
    </style>
  </defs>
  <path id="size-icon" class="cls-1" d="M1207.94,1146.41a0.555,0.555,0,0,1,0,.79l-0.49.5a0.57,0.57,0,0,1-.39.16h-0.01a0.531,0.531,0,0,1-.43-0.21l-0.46-.46a0.587,0.587,0,0,1,0-.8,0.638,0.638,0,0,1,.33-0.16v-9.62a0.516,0.516,0,0,1-.33-0.16,0.574,0.574,0,0,1,0-.79l0.49-.5a0.551,0.551,0,0,1,.4-0.16h0a0.565,0.565,0,0,1,.44.21l0.45,0.46a0.571,0.571,0,0,1-.33.96v9.62A0.494,0.494,0,0,1,1207.94,1146.41Zm13.06,2.52a0.6,0.6,0,0,0-.16-0.4l-0.49-.49a0.555,0.555,0,0,0-.79,0,0.6,0.6,0,0,0-.16.34h-9.52a0.5,0.5,0,0,0-.16-0.34,0.543,0.543,0,0,0-.78,0l-0.46.46a0.55,0.55,0,0,0-.21.44h0a0.576,0.576,0,0,0,.16.4l0.49,0.5a0.6,0.6,0,0,0,.4.16,0.555,0.555,0,0,0,.39-0.17,0.543,0.543,0,0,0,.16-0.33h9.52a0.6,0.6,0,0,0,.16.34,0.568,0.568,0,0,0,.79,0l0.45-.46a0.55,0.55,0,0,0,.21-0.44v-0.01h0Zm-0.56-9.19h-3.91v-4.18a0.559,0.559,0,0,0-.56-0.56h-6.64a0.559,0.559,0,0,0-.56.56v11.08a0.559,0.559,0,0,0,.56.56h11.11a0.559,0.559,0,0,0,.56-0.56v-6.34A0.559,0.559,0,0,0,1220.44,1139.74Z" transform="translate(-1206 -1135)"/>
</svg>
