<svg xmlns="http://www.w3.org/2000/svg" width="14" height="15" viewBox="0 0 14 15">
  <metadata><?xpacket begin="﻿" id="W5M0MpCehiHzreSzNTczkc9d"?>
<x:xmpmeta xmlns:x="adobe:ns:meta/" x:xmptk="Adobe XMP Core 5.6-c138 79.159824, 2016/09/14-01:09:01        ">
   <rdf:RDF xmlns:rdf="http://www.w3.org/1999/02/22-rdf-syntax-ns#">
      <rdf:Description rdf:about=""/>
   </rdf:RDF>
</x:xmpmeta>
                                                                                                    
                                                                                                    
                                                                                                    
                                                                                                    
                                                                                                    
                                                                                                    
                                                                                                    
                                                                                                    
                                                                                                    
                                                                                                    
                                                                                                    
                                                                                                    
                                                                                                    
                                                                                                    
                                                                                                    
                                                                                                    
                                                                                                    
                                                                                                    
                                                                                                    
                                                                                                    
                           
<?xpacket end="w"?></metadata>
<defs>
    <style>
      .cls-1 {
        fill: #b07a4b;
        fill-rule: evenodd;
      }
    </style>
  </defs>
  <path id="slide-icon" class="cls-1" d="M820.677,1027.07a0.7,0.7,0,0,0-.988.22l-1.183,1.88a0.751,0.751,0,0,0-.322-0.64,0.694,0.694,0,0,0-.988.21l-0.088.14a0.75,0.75,0,0,0-.321-0.64,0.689,0.689,0,0,0-.988.22l-0.127.2a0.769,0.769,0,0,0-.322-0.65,0.7,0.7,0,0,0-.988.22c-1.929,3.07-1.725,2.75-1.753,2.8a2.271,2.271,0,0,0-.272,1.61,2.2,2.2,0,0,0,.909,1.39l1.169,0.8a1.831,1.831,0,0,0,1.778.16l3.44-1.22a0.761,0.761,0,0,0,.445-0.95,0.712,0.712,0,0,0-.906-0.47l-1.231.44,2.942-4.69A0.765,0.765,0,0,0,820.677,1027.07Zm-5.656,9.07-3.568-2.44a0.425,0.425,0,0,0-.605.13l-0.64,1.02a0.464,0.464,0,0,0,.126.63l3.568,2.45a0.435,0.435,0,0,0,.6-0.14l0.64-1.02A0.467,0.467,0,0,0,815.021,1036.14Zm-3-10.87h5.42l-0.428.45a0.5,0.5,0,0,0,0,.69,0.46,0.46,0,0,0,.666,0l1.231-1.28a0.513,0.513,0,0,0,0-.7l-1.231-1.29a0.46,0.46,0,0,0-.666,0,0.513,0.513,0,0,0,0,.7l0.428,0.45h-5.42A0.49,0.49,0,0,0,812.017,1025.27Zm-3.41,2.57h5.185a0.49,0.49,0,0,0,0-.98h-5.185l0.428-.45a0.5,0.5,0,0,0,0-.69,0.445,0.445,0,0,0-.666,0l-1.231,1.28a0.507,0.507,0,0,0-.138.35,0.525,0.525,0,0,0,.138.35l1.231,1.28a0.445,0.445,0,0,0,.666,0,0.5,0.5,0,0,0,0-.69Z" transform="translate(-807 -1023)"/>
</svg>
