<svg xmlns="http://www.w3.org/2000/svg" xmlns:xlink="http://www.w3.org/1999/xlink" width="16" height="16" viewBox="0 0 16 16">
  <metadata><?xpacket begin="﻿" id="W5M0MpCehiHzreSzNTczkc9d"?>
<x:xmpmeta xmlns:x="adobe:ns:meta/" x:xmptk="Adobe XMP Core 5.6-c138 79.159824, 2016/09/14-01:09:01        ">
   <rdf:RDF xmlns:rdf="http://www.w3.org/1999/02/22-rdf-syntax-ns#">
      <rdf:Description rdf:about=""/>
   </rdf:RDF>
</x:xmpmeta>
                                                                                                    
                                                                                                    
                                                                                                    
                                                                                                    
                                                                                                    
                                                                                                    
                                                                                                    
                                                                                                    
                                                                                                    
                                                                                                    
                                                                                                    
                                                                                                    
                                                                                                    
                                                                                                    
                                                                                                    
                                                                                                    
                                                                                                    
                                                                                                    
                                                                                                    
                                                                                                    
                           
<?xpacket end="w"?></metadata>
<defs>
    <style>
      .cls-1 {
        fill-rule: evenodd;
        filter: url(#filter);
      }
    </style>
    <filter id="filter" x="1441" y="2461" width="16" height="16" filterUnits="userSpaceOnUse">
      <feFlood result="flood" flood-color="#50b848"/>
      <feComposite result="composite" operator="in" in2="SourceGraphic"/>
      <feBlend result="blend" in2="SourceGraphic"/>
      <feFlood result="flood-2" flood-color="#fff"/>
      <feComposite result="composite-2" operator="in" in2="SourceGraphic"/>
      <feBlend result="blend-2" in2="blend"/>
    </filter>
  </defs>
  <path id="insta" class="cls-1" d="M1452.58,2461h-7.16a4.421,4.421,0,0,0-4.42,4.42v7.16a4.421,4.421,0,0,0,4.42,4.42h7.16a4.421,4.421,0,0,0,4.42-4.42v-7.16A4.421,4.421,0,0,0,1452.58,2461Zm3,11.58a3,3,0,0,1-3,3h-7.16a3,3,0,0,1-3-3v-7.16a3,3,0,0,1,3-3h7.16a3,3,0,0,1,3,3v7.16h0Zm-6.58-7.7a4.12,4.12,0,1,0,4.12,4.12A4.127,4.127,0,0,0,1449,2464.88Zm0,6.82a2.7,2.7,0,1,1,2.7-2.7A2.7,2.7,0,0,1,1449,2471.7Zm4.3-8.03a1.02,1.02,0,0,0-.74.31,1.039,1.039,0,1,0,1.47,1.47A1.045,1.045,0,0,0,1453.3,2463.67Z" transform="translate(-1441 -2461)"/>
</svg>
