<svg xmlns="http://www.w3.org/2000/svg" width="17" height="10" viewBox="0 0 17 10">
  <metadata><?xpacket begin="﻿" id="W5M0MpCehiHzreSzNTczkc9d"?>
<x:xmpmeta xmlns:x="adobe:ns:meta/" x:xmptk="Adobe XMP Core 5.6-c138 79.159824, 2016/09/14-01:09:01        ">
   <rdf:RDF xmlns:rdf="http://www.w3.org/1999/02/22-rdf-syntax-ns#">
      <rdf:Description rdf:about=""/>
   </rdf:RDF>
</x:xmpmeta>
                                                                                                    
                                                                                                    
                                                                                                    
                                                                                                    
                                                                                                    
                                                                                                    
                                                                                                    
                                                                                                    
                                                                                                    
                                                                                                    
                                                                                                    
                                                                                                    
                                                                                                    
                                                                                                    
                                                                                                    
                                                                                                    
                                                                                                    
                                                                                                    
                                                                                                    
                                                                                                    
                           
<?xpacket end="w"?></metadata>
<defs>
    <style>
      .cls-1 {
        fill: #7c7c7c;
        fill-rule: evenodd;
      }
    </style>
  </defs>
  <path id="warehouse-icon" class="cls-1" d="M629.036,900.138a1.436,1.436,0,1,0,1.5,1.434A1.468,1.468,0,0,0,629.036,900.138Zm0,2.153a0.719,0.719,0,1,1,.748-0.719A0.736,0.736,0,0,1,629.036,902.291Zm-1.289-2.152H624.4a0.235,0.235,0,0,0-.24.23v0.7a0.235,0.235,0,0,0,.24.231h2.687A1.869,1.869,0,0,1,627.747,900.139Zm9.114,0a1.436,1.436,0,1,0,1.5,1.434A1.467,1.467,0,0,0,636.861,900.138Zm0,2.153a0.719,0.719,0,1,1,.747-0.719A0.734,0.734,0,0,1,636.861,902.291Zm3.9-2.153h-0.585v-3.133a1.792,1.792,0,0,0-.329-1.03l-1.464-2.079a1.946,1.946,0,0,0-1.594-.812h-2.269a0.472,0.472,0,0,0-.481.461v6.593h-3.713a1.881,1.881,0,0,1,.663,1.162h3.921a1.987,1.987,0,0,1,3.906,0h1.945a0.235,0.235,0,0,0,.24-0.231v-0.7A0.235,0.235,0,0,0,640.76,900.138Zm-2.395-3.748h-3a0.235,0.235,0,0,1-.24-0.231v-1.592a0.236,0.236,0,0,1,.24-0.231H637.2a0.243,0.243,0,0,1,.2.1l1.171,1.6A0.23,0.23,0,0,1,638.365,896.39Zm-5.471,3.287h-8.413a0.471,0.471,0,0,1-.481-0.461v-2.075a0.471,0.471,0,0,1,.481-0.461h8.413a0.471,0.471,0,0,1,.481.461v2.075A0.471,0.471,0,0,1,632.894,899.677Zm-5.048-3.688h-3.365a0.471,0.471,0,0,1-.481-0.461v-2.075a0.471,0.471,0,0,1,.481-0.461h3.365a0.471,0.471,0,0,1,.481.461v2.075A0.471,0.471,0,0,1,627.846,895.989Zm5.048,0h-3.365a0.471,0.471,0,0,1-.481-0.461v-2.075a0.471,0.471,0,0,1,.481-0.461h3.365a0.471,0.471,0,0,1,.481.461v2.075A0.471,0.471,0,0,1,632.894,895.989Z" transform="translate(-624 -893)"/>
</svg>
